<svg width="61" height="36" viewBox="0 0 61 36" fill="none" xmlns="http://www.w3.org/2000/svg">
<path d="M61 2.52256V0H43.2083V2.52256H50.8333V5.04511H48.2917V10.0902H39.9042L36.0891 3.53158H25.0481L21.2356 10.0902H12.7083V5.04511H10.1667V2.52256H17.7917V0H0V2.52256H7.625V5.04511H5.08333V17.6579H12.7083V15.1353H20.7578L21.3068 16.0788C17.9597 17.7633 15.1474 20.3341 13.1813 23.5067C11.2151 26.6792 10.1718 30.3299 10.1667 34.0545C10.1667 34.389 10.3006 34.7098 10.5389 34.9464C10.7772 35.1829 11.1005 35.3158 11.4375 35.3158C11.7745 35.3158 12.0978 35.1829 12.3361 34.9464C12.5744 34.7098 12.7083 34.389 12.7083 34.0545C12.7127 30.7726 13.6385 27.5568 15.3818 24.7679C17.1251 21.9791 19.6169 19.7275 22.5776 18.2658L25.0481 22.5113H36.0891L38.5291 18.3163C41.462 19.789 43.9267 22.039 45.6499 24.817C47.3731 27.595 48.2875 30.7923 48.2917 34.0545C48.2917 34.389 48.4256 34.7098 48.6639 34.9464C48.9022 35.1829 49.2255 35.3158 49.5625 35.3158C49.8995 35.3158 50.2228 35.1829 50.4611 34.9464C50.6994 34.7098 50.8333 34.389 50.8333 34.0545C50.8289 30.3498 49.7974 26.7177 47.8517 23.556C45.9061 20.3943 43.1214 17.8249 39.8025 16.1292L40.3795 15.1353H48.2917V17.6579H55.9167V5.04511H53.375V2.52256H61Z" fill="white"/>
</svg>
