<svg width="61" height="61" viewBox="0 0 61 61" fill="none" xmlns="http://www.w3.org/2000/svg">
<path d="M34.9225 25.165L31.903 28.1845C31.822 28.2587 31.7253 28.3136 31.6201 28.3453C31.515 28.3769 31.404 28.3846 31.2955 28.3675H31.293L24.461 26.7815L24.2475 26.995L29.2495 29.618C29.3373 29.6626 29.4132 29.7274 29.4711 29.807C29.529 29.8866 29.5672 29.9788 29.5826 30.076C29.598 30.1732 29.5901 30.2727 29.5596 30.3663C29.5291 30.4599 29.4768 30.5449 29.4071 30.6144L29.3944 30.6271L26.352 33.6695L26.3393 33.6822C26.2711 33.7505 26.1875 33.8017 26.0956 33.8313C26.0036 33.8609 25.9059 33.8682 25.8106 33.8525H25.8081L24.2526 33.639L25.9606 34.615C26.0704 34.663 26.1576 34.7512 26.2046 34.8615L26.202 34.859L27.1501 36.539L26.9315 34.9784C26.9147 34.8819 26.9215 34.7828 26.9511 34.6895C26.9808 34.5961 27.0324 34.5113 27.1018 34.4421L27.1145 34.4294L30.1315 31.4125L30.1442 31.3997C30.2129 31.3306 30.2973 31.279 30.3902 31.2494C30.4831 31.2198 30.5818 31.2129 30.6779 31.2295H30.6805C30.7808 31.2383 30.8767 31.2748 30.9574 31.335C31.0382 31.3951 31.1007 31.4765 31.138 31.57L31.1354 31.5675L33.7635 36.5746L33.977 36.3611L32.3859 29.524C32.3685 29.4155 32.3759 29.3045 32.4076 29.1993C32.4393 29.094 32.4945 28.9974 32.5689 28.9165L35.5884 25.897C35.6762 25.7966 35.7251 25.6679 35.726 25.5345C35.7269 25.4011 35.6799 25.2718 35.5935 25.1701V25.1676C35.4817 24.9897 35.1055 24.9871 34.9225 25.1701V25.165Z" fill="white"/>
<path d="M35.3495 3.08304L31.8115 6.62104C32.0642 6.87371 32.2646 7.17367 32.4013 7.5038C32.5381 7.83393 32.6085 8.18776 32.6085 8.54508C32.6085 8.90241 32.5381 9.25624 32.4013 9.58637C32.2646 9.91649 32.0642 10.2165 31.8115 10.4691C31.5588 10.7218 31.2589 10.9222 30.9287 11.059C30.5986 11.1957 30.2448 11.2661 29.8875 11.2661C29.1658 11.2661 28.4737 10.9794 27.9634 10.4691L3.0805 35.352L3.07287 35.3597C2.25881 36.1746 1.80154 37.2794 1.80154 38.4313C1.80154 39.5832 2.25881 40.6879 3.07287 41.5029L3.08304 41.513L19.492 57.922L19.4997 57.9297C20.3146 58.7437 21.4194 59.201 22.5713 59.201C23.7232 59.201 24.8279 58.7437 25.6429 57.9297L25.653 57.9195L50.536 33.0366C50.1011 32.5117 49.8761 31.8444 49.9042 31.1633C49.9324 30.4823 50.2118 29.8358 50.6885 29.3486C51.1703 28.8654 51.8161 28.581 52.4979 28.5518C53.1796 28.5226 53.8474 28.7508 54.3688 29.191L54.3764 29.1987L57.9144 25.6607L57.922 25.653C58.7361 24.8381 59.1934 23.7333 59.1934 22.5814C59.1934 21.4296 58.7361 20.3248 57.922 19.5098L57.9119 19.4997L41.5029 3.09067L41.4952 3.08304C40.6803 2.26898 39.5755 1.81171 38.4236 1.81171C37.2718 1.81171 36.167 2.26898 35.352 3.08304L35.347 3.08813L35.3495 3.08304ZM17.141 33.001L22.021 28.121C22.0598 28.0764 22.1074 28.0403 22.1607 28.0148C22.2141 27.9893 22.2721 27.9751 22.3312 27.9729C22.3903 27.9708 22.4492 27.9808 22.5043 28.0023C22.5593 28.0239 22.6094 28.0565 22.6513 28.0981C22.693 28.1401 22.7256 28.1901 22.7471 28.2452C22.7687 28.3003 22.7787 28.3592 22.7765 28.4182C22.7744 28.4773 22.7601 28.5354 22.7347 28.5887C22.7092 28.6421 22.673 28.6896 22.6285 28.7285L17.7485 33.6085L17.7307 33.6262C17.6929 33.6643 17.6479 33.6945 17.5984 33.7151C17.5489 33.7357 17.4958 33.7463 17.4422 33.7463C17.3886 33.7463 17.3355 33.7357 17.286 33.7151C17.2365 33.6945 17.1915 33.6643 17.1537 33.6262L17.1359 33.6059C17.0555 33.5246 17.0107 33.4147 17.0112 33.3004C17.0116 33.1861 17.0574 33.0766 17.1385 32.9959L17.141 33.001ZM24.0035 29.3105C24.0423 29.2659 24.0899 29.2298 24.1432 29.2043C24.1966 29.1788 24.2546 29.1646 24.3137 29.1624C24.3728 29.1603 24.4317 29.1703 24.4868 29.1918C24.5418 29.2134 24.5919 29.246 24.6338 29.2876C24.6755 29.3296 24.7081 29.3796 24.7296 29.4347C24.7512 29.4898 24.7612 29.5487 24.759 29.6077C24.7569 29.6668 24.7426 29.7249 24.7172 29.7782C24.6917 29.8316 24.6555 29.8791 24.611 29.918L22.0159 32.513C21.9771 32.5576 21.9295 32.5937 21.8762 32.6192C21.8228 32.6447 21.7648 32.6589 21.7057 32.6611C21.6466 32.6632 21.5877 32.6532 21.5327 32.6317C21.4776 32.6101 21.4275 32.5775 21.3856 32.5359C21.3439 32.4939 21.3113 32.4439 21.2898 32.3888C21.2682 32.3337 21.2582 32.2748 21.2604 32.2157C21.2625 32.1567 21.2768 32.0986 21.3022 32.0453C21.3277 31.9919 21.3639 31.9444 21.4085 31.9055L24.0035 29.3105ZM19.6344 49.4176C19.886 49.6692 19.886 50.081 19.6344 50.3326C19.3827 50.5842 18.971 50.5842 18.7194 50.3326L10.6674 42.2806C10.4157 42.029 10.4157 41.6172 10.6674 41.3656C10.919 41.114 11.3307 41.114 11.5824 41.3656L19.6344 49.4176ZM19.7869 46.0931C20.0385 46.3447 20.0385 46.7565 19.7869 47.0081C19.5352 47.2597 19.1235 47.2597 18.8719 47.0081L13.9919 42.1281C13.7402 41.8765 13.7402 41.4647 13.9919 41.2131C14.2435 40.9615 14.6552 40.9615 14.9069 41.2131L19.7869 46.0931ZM32.6528 38.7782L27.7855 43.6455C27.7467 43.6901 27.6991 43.7262 27.6458 43.7517C27.5924 43.7772 27.5344 43.7914 27.4753 43.7936C27.4162 43.7957 27.3573 43.7857 27.3022 43.7642C27.2472 43.7426 27.1971 43.71 27.1552 43.6684C27.1135 43.6264 27.0809 43.5764 27.0594 43.5213C27.0378 43.4662 27.0278 43.4073 27.03 43.3482C27.0321 43.2892 27.0464 43.2311 27.0718 43.1778C27.0973 43.1244 27.1334 43.0769 27.178 43.038L32.058 38.158L32.0758 38.1402C32.1136 38.1022 32.1586 38.072 32.2081 38.0514C32.2576 38.0308 32.3107 38.0202 32.3643 38.0202C32.4179 38.0202 32.471 38.0308 32.5205 38.0514C32.57 38.072 32.615 38.1022 32.6528 38.1402L32.6706 38.1606C32.7434 38.245 32.7834 38.3528 32.7834 38.4643C32.7834 38.5758 32.7434 38.6836 32.6706 38.768L32.6528 38.7782ZM28.7615 39.3145C28.6791 39.3877 28.5719 39.4267 28.4618 39.4234C28.3516 39.4202 28.2469 39.375 28.1689 39.2971C28.091 39.2191 28.0458 39.1144 28.0426 39.0042C28.0393 38.8941 28.0783 38.7869 28.1515 38.7045L30.7465 36.1095C30.8289 36.0363 30.9361 35.9973 31.0463 36.0005C31.1564 36.0038 31.2612 36.049 31.3391 36.1269C31.417 36.2048 31.4622 36.3096 31.4655 36.4197C31.4687 36.5299 31.4297 36.6371 31.3565 36.7195L28.7615 39.3145ZM36.6 26.8425L33.8245 29.618L35.4105 36.45C35.4279 36.5585 35.4205 36.6696 35.3888 36.7748C35.3571 36.88 35.3019 36.9767 35.2275 37.0575L34.1295 38.1555L34.1168 38.1682C34.048 38.2373 33.9636 38.2889 33.8707 38.3186C33.7778 38.3482 33.6791 38.355 33.583 38.3385H33.5805C33.4802 38.3296 33.3843 38.2931 33.3035 38.233C33.2228 38.1728 33.1603 38.0915 33.123 37.9979L33.1255 38.0005L30.5076 33.0035L28.3116 35.1995L28.5251 36.816C28.5419 36.9125 28.5351 37.0116 28.5055 37.105C28.4759 37.1983 28.4242 37.2832 28.3548 37.3523L28.3421 37.365L27.5186 38.1885L27.5059 38.2012C27.4371 38.2704 27.3527 38.322 27.2598 38.3516C27.1669 38.3812 27.0683 38.3881 26.9722 38.3715H26.9696C26.8693 38.3627 26.7734 38.3262 26.6927 38.266C26.6119 38.2059 26.5494 38.1245 26.5121 38.031L26.5147 38.0335L25.2337 35.7155L22.9106 34.4294C22.7459 34.3221 22.6257 34.1586 22.5725 33.9694L22.5751 33.9745C22.5583 33.878 22.5651 33.7788 22.5947 33.6855C22.6243 33.5922 22.676 33.5073 22.7454 33.4382L22.7581 33.4255L23.5816 32.602L23.5943 32.5892C23.6631 32.5201 23.7475 32.4685 23.8404 32.4389C23.9333 32.4093 24.0319 32.4024 24.128 32.419H24.1306L25.7471 32.6325L27.9431 30.4365L22.8801 27.7525C22.7923 27.7079 22.7164 27.6431 22.6585 27.5635C22.6006 27.4839 22.5623 27.3917 22.547 27.2945C22.5316 27.1973 22.5395 27.0978 22.57 27.0042C22.6005 26.9106 22.6528 26.8256 22.7225 26.7561L22.7352 26.7434L23.8307 25.648C23.9117 25.5738 24.0084 25.5189 24.1135 25.4872C24.2187 25.4555 24.3296 25.4479 24.4381 25.465H24.4407L31.2727 27.051L34.0482 24.2755C34.3893 23.9383 34.8496 23.7493 35.3292 23.7493C35.8088 23.7493 36.269 23.9383 36.6102 24.2755C36.9395 24.6217 37.1223 25.0819 37.1205 25.5598C37.1186 26.0377 36.9321 26.4963 36.6 26.84V26.8425ZM48.312 25.6835C48.5636 25.9352 48.5636 26.3469 48.312 26.5985C48.0604 26.8502 47.6486 26.8502 47.397 26.5985L47.092 26.2935C46.8404 26.0419 46.8404 25.6302 47.092 25.3785C47.3436 25.1269 47.7554 25.1269 48.007 25.3785L48.312 25.6835ZM46.177 23.5485C46.4286 23.8002 46.4286 24.2119 46.177 24.4635C45.9254 24.7152 45.5136 24.7152 45.262 24.4635L44.957 24.1585C44.7054 23.9069 44.7054 23.4952 44.957 23.2435C45.2086 22.9919 45.6204 22.9919 45.872 23.2435L46.177 23.5485ZM44.042 21.4135C44.2936 21.6652 44.2936 22.0769 44.042 22.3285C43.7904 22.5802 43.3786 22.5802 43.127 22.3285L42.8195 22.021C42.5678 21.7694 42.5678 21.3576 42.8195 21.106C43.0711 20.8544 43.4828 20.8544 43.7345 21.106L44.042 21.4135ZM41.9095 19.2785C42.1612 19.5302 42.1612 19.9419 41.9095 20.1935C41.6579 20.4452 41.2462 20.4452 40.9945 20.1935L40.687 19.886C40.4354 19.6344 40.4354 19.2226 40.687 18.971C40.9386 18.7194 41.3504 18.7194 41.602 18.971L41.9095 19.2785ZM39.7745 17.1435C40.0262 17.3952 40.0262 17.8069 39.7745 18.0585C39.5229 18.3102 39.1112 18.3102 38.8595 18.0585L38.552 17.751C38.3004 17.4994 38.3004 17.0876 38.552 16.836C38.8036 16.5844 39.2154 16.5844 39.467 16.836L39.7745 17.1435ZM37.6395 15.0085C37.8912 15.2602 37.8912 15.6719 37.6395 15.9235C37.3879 16.1752 36.9762 16.1752 36.7245 15.9235L36.417 15.616C36.1654 15.3644 36.1654 14.9526 36.417 14.701C36.6686 14.4494 37.0804 14.4494 37.332 14.701L37.6395 15.0085ZM35.5045 12.8735C35.7562 13.1252 35.7562 13.5369 35.5045 13.7885C35.2529 14.0402 34.8412 14.0402 34.5895 13.7885L34.282 13.481C34.0304 13.2294 34.0304 12.8176 34.282 12.566C34.5336 12.3144 34.9454 12.3144 35.197 12.566L35.5045 12.8735ZM37.6395 10.3751L39.7135 8.30108L38.979 7.56654L39.467 7.07854L41.5105 9.12204L41.0225 9.61004L40.2905 8.87804L38.2165 10.952L37.6395 10.3751ZM39.683 12.4186L42.245 9.85658L42.822 10.4335L40.26 12.9955L39.683 12.4186ZM53.9189 21.5305L53.4309 22.0185L52.6989 21.2865L50.6275 23.3579L50.0505 22.781L52.1245 20.707L51.3925 19.975L51.8805 19.487L53.9189 21.5305ZM51.2349 18.849L50.7774 19.3065L49.654 18.1831L49.105 18.7321L50.114 19.7411L49.6565 20.1986L48.6475 19.1896L48.0375 19.7996L49.1914 20.9535L48.7339 21.411L47.003 19.6801L49.565 17.1181L51.273 18.8261L51.2349 18.849ZM47.2699 14.8815L46.116 16.0354L48.0909 15.705L48.7314 16.3455L46.8709 16.62L46.2914 19.0295L45.6534 18.3915L46.0804 16.7445L45.3128 16.8411L44.6723 17.4816L44.0954 16.9046L46.6574 14.3426L47.2343 14.9196L47.2699 14.8815ZM45.4094 14.119L44.6774 13.875C44.7224 13.7164 44.7243 13.5486 44.6827 13.3891C44.6411 13.2296 44.5577 13.0841 44.441 12.9676L44.436 12.9625C44.07 12.5965 43.4905 12.5635 42.9415 13.115C42.3925 13.6665 42.423 14.2435 42.789 14.6095L42.794 14.6146C42.91 14.7304 43.0547 14.8133 43.2132 14.8548C43.3718 14.8963 43.5385 14.895 43.6963 14.851L43.7014 14.8484L43.9454 15.5804C43.6591 15.6476 43.3604 15.6406 43.0775 15.5601C42.7946 15.4796 42.537 15.3283 42.3289 15.1204L42.2654 15.0543L42.2679 15.0568L42.2298 15.0212C42.0698 14.8614 41.9429 14.6717 41.8563 14.4628C41.7697 14.2539 41.7251 14.0299 41.7251 13.8038C41.7251 13.5777 41.7697 13.3537 41.8563 13.1448C41.9429 12.9359 42.0698 12.7461 42.2298 12.5863L42.3315 12.4923L42.3264 12.4974C42.4776 12.3156 42.6651 12.1673 42.8769 12.0619C43.0886 11.9566 43.32 11.8965 43.5562 11.8855C43.7924 11.8745 44.0284 11.9128 44.249 11.9981C44.4696 12.0833 44.67 12.2135 44.8375 12.3805L44.8935 12.4389L44.8909 12.4364C45.1347 12.6325 45.3145 12.8968 45.4073 13.1956C45.5002 13.4944 45.5018 13.8141 45.412 14.1139L45.4094 14.1215V14.119Z" fill="white"/>
</svg>
